<?xml version="1.0" standalone="no"?>
<!DOCTYPE svg PUBLIC "-//W3C//DTD SVG 20010904//EN"
 "http://www.w3.org/TR/2001/REC-SVG-20010904/DTD/svg10.dtd">
<svg version="1.0" xmlns="http://www.w3.org/2000/svg"
 width="1280.000000pt" height="921.000000pt" viewBox="0 0 1280.000000 921.000000"
 preserveAspectRatio="xMidYMid meet">
<metadata>
Created by potrace 1.15, written by Peter Selinger 2001-2017
</metadata>
<g transform="translate(0.000000,921.000000) scale(0.100000,-0.100000)"
fill="#000000" stroke="none">
<path d="M10241 9178 c-71 -31 -86 -31 -45 1 42 33 22 25 -68 -28 -80 -47 -87
-49 -181 -56 -53 -3 -161 -20 -240 -36 -221 -47 -290 -58 -395 -65 l-97 -6
-65 -67 c-72 -72 -124 -152 -232 -359 -40 -76 -104 -186 -142 -247 -71 -111
-196 -347 -196 -369 0 -7 -90 -45 -202 -86 -112 -41 -238 -88 -280 -106 -106
-45 -184 -58 -256 -43 -81 16 -185 56 -347 132 -156 74 -239 99 -333 101 -61
1 -63 2 -57 25 4 14 18 39 33 56 32 37 278 234 360 288 31 20 54 37 52 37 -26
0 -125 -54 -156 -84 -21 -21 -82 -69 -134 -106 -110 -78 -178 -147 -187 -190
-9 -47 -27 -36 -20 13 12 82 27 117 48 117 36 0 76 29 140 101 48 53 81 80
133 106 105 53 162 100 287 235 226 244 277 291 344 312 33 10 98 33 144 52
47 19 86 32 87 31 2 -2 -26 -20 -61 -41 -36 -21 -65 -40 -65 -42 0 -2 46 19
103 47 62 32 128 57 171 65 76 15 145 50 170 88 23 36 21 41 -25 43 -23 0 -45
6 -48 12 -4 6 -60 -12 -151 -50 -222 -93 -414 -162 -424 -152 -2 3 2 24 10 46
17 45 31 187 20 187 -4 0 -21 -7 -37 -16 -17 -8 -32 -14 -33 -12 -1 2 -7 14
-13 28 -9 23 -17 12 -96 -146 -62 -122 -112 -204 -173 -285 -124 -163 -139
-177 -216 -199 -26 -8 -29 -5 -58 45 -17 29 -46 65 -65 79 -41 32 -71 81 -120
198 -37 89 -96 164 -121 154 -7 -3 -16 -1 -19 4 -5 9 -55 15 -55 7 0 -1 30
-72 66 -157 101 -239 115 -279 121 -352 5 -63 4 -70 -27 -118 -38 -60 -121
-122 -193 -146 -111 -36 -137 -68 -137 -167 0 -49 -3 -58 -27 -75 -46 -32
-107 -60 -148 -68 -22 -4 -53 -17 -70 -29 -83 -62 -165 -88 -390 -120 -150
-22 -180 -30 -257 -66 -91 -43 -120 -45 -162 -14 -14 10 -16 18 -9 27 6 7 75
92 154 188 253 308 241 287 282 485 19 94 38 212 42 263 3 51 10 104 15 117 5
14 7 25 5 25 -9 0 -65 -105 -65 -122 0 -10 -4 -18 -10 -18 -5 0 -10 22 -10 48
0 36 7 60 28 93 39 60 86 96 262 197 14 8 -4 -12 -40 -44 -36 -33 -83 -76
-105 -98 l-40 -39 50 39 c88 67 164 135 186 165 l20 28 -35 -14 c-49 -20 -59
-19 -51 6 17 52 -90 -7 -257 -141 -20 -17 -46 -30 -56 -30 -12 0 -47 30 -88
76 -53 58 -72 74 -88 70 -11 -3 -28 2 -38 11 -36 32 22 -79 63 -122 21 -22 51
-67 66 -100 26 -56 28 -68 27 -190 -1 -172 -20 -240 -101 -360 -96 -142 -180
-253 -291 -384 -116 -136 -116 -136 -215 -102 -114 39 -496 81 -807 88 -245 6
-320 1 -600 -38 -361 -51 -860 -244 -1304 -504 -71 -41 -130 -74 -131 -73 -9
12 21 190 37 223 79 155 247 335 536 572 223 182 267 213 312 213 38 0 106
-47 185 -130 92 -96 119 -115 190 -135 105 -31 169 -19 520 99 344 115 645
225 645 236 0 12 -47 29 -112 41 -59 10 -69 9 -163 -21 -55 -18 -162 -61 -239
-97 -237 -110 -281 -125 -376 -131 -103 -5 -254 12 -286 33 -16 10 -24 25 -24
43 0 36 -23 68 -63 88 l-32 16 23 -21 c12 -12 22 -25 22 -29 0 -4 5 -25 10
-47 l9 -40 -26 30 c-29 36 -56 92 -48 105 3 5 -26 26 -65 46 l-70 38 42 45
c43 45 29 40 -27 -10 -27 -23 -75 -45 -75 -33 0 3 6 17 14 32 23 44 77 89 140
117 74 33 138 75 269 177 100 79 219 148 254 148 10 0 85 47 168 104 85 59
153 100 156 94 4 -7 9 -6 14 2 4 7 1 18 -7 26 -13 13 -18 12 -41 -6 l-27 -21
-10 25 c-5 14 -12 26 -15 26 -3 0 -39 -27 -81 -60 -124 -99 -137 -100 -83 -5
l31 55 -25 0 c-24 0 -59 -32 -99 -90 l-17 -25 0 27 c-1 15 4 39 10 55 7 19
-35 -17 -133 -115 -79 -78 -165 -158 -193 -178 -27 -20 -122 -71 -210 -115
l-160 -80 -80 -91 c-119 -136 -279 -274 -344 -298 -29 -12 -55 -19 -57 -17 -2
2 1 21 7 42 17 61 4 116 -60 248 -73 151 -85 199 -72 292 12 83 14 121 4 111
-4 -3 -8 -12 -9 -19 -2 -7 -9 -29 -17 -50 -16 -43 -29 -40 -17 4 5 17 5 27 0
24 -5 -3 -12 6 -16 20 -8 32 -13 31 -42 -6 -21 -26 -40 -80 -56 -161 -5 -24
-9 -26 -44 -21 -41 6 -106 -20 -100 -38 2 -6 37 -25 78 -43 67 -30 78 -38 108
-87 53 -88 75 -175 70 -277 -7 -124 -32 -180 -134 -304 -116 -140 -195 -260
-264 -403 -113 -229 -116 -265 -35 -356 l33 -37 -237 -238 c-332 -335 -389
-406 -510 -634 -154 -291 -277 -553 -338 -720 -38 -105 -51 -124 -95 -139 -29
-10 -30 -10 -59 52 -16 34 -27 54 -25 45 21 -75 27 -101 23 -104 -11 -11 -115
149 -131 204 -11 34 20 28 56 -10 l29 -32 -17 38 c-10 21 -27 38 -39 41 -11 2
-63 14 -115 26 -86 21 -179 27 -259 17 -21 -3 -28 10 -87 157 -62 154 -116
319 -130 398 -4 27 -2 43 9 55 27 31 45 76 66 165 12 49 26 97 32 108 6 12 8
23 6 26 -10 10 -38 -59 -63 -155 -14 -56 -36 -114 -52 -137 l-28 -40 27 -100
c15 -55 41 -153 58 -218 31 -118 57 -180 92 -226 10 -13 16 -28 13 -33 -7 -11
-43 0 -68 21 -34 30 -88 152 -98 223 -5 37 -25 113 -44 168 -32 95 -41 158
-28 207 3 12 12 19 19 17 25 -10 125 170 125 224 0 23 21 52 40 55 24 4 40 17
40 33 0 13 -4 12 -30 -1 -38 -20 -64 -61 -91 -145 -24 -72 -65 -150 -79 -150
-14 0 -14 2 30 148 22 72 40 135 40 140 0 13 -131 -192 -165 -259 l-34 -66
-76 -12 c-42 -6 -105 -11 -140 -11 -36 0 -65 -4 -65 -8 0 -5 28 -14 62 -20 78
-15 142 -54 183 -113 21 -30 57 -122 104 -265 39 -120 79 -238 87 -262 20 -54
72 -90 184 -127 102 -34 137 -65 169 -150 80 -210 0 -467 -231 -749 -84 -102
-99 -148 -108 -336 -5 -85 -12 -168 -15 -185 -13 -53 -54 -119 -90 -144 -65
-44 -73 -158 -25 -356 47 -196 44 -260 -39 -670 -52 -260 -65 -366 -58 -500
10 -185 61 -302 196 -448 142 -153 143 -154 151 -607 6 -343 8 -372 33 -488
38 -176 42 -235 23 -311 -9 -34 -14 -67 -11 -71 3 -5 31 -24 63 -43 50 -31 75
-38 205 -57 143 -22 150 -22 181 -5 45 24 70 16 139 -46 72 -64 217 -124 276
-114 54 8 92 -7 213 -86 l110 -72 61 9 62 9 -50 29 c-82 47 -128 90 -177 163
-46 69 -90 150 -102 190 -4 13 -23 48 -41 79 -66 109 -83 290 -40 434 33 113
32 126 -19 225 -58 112 -82 176 -91 242 -7 51 -6 52 56 145 157 234 371 491
468 562 84 62 183 92 261 81 l45 -7 -55 -14 c-131 -34 -245 -114 -316 -222
-20 -31 -62 -88 -92 -127 -31 -38 -43 -59 -27 -45 15 14 65 75 112 137 77 103
126 152 178 181 18 9 34 -3 140 -107 313 -306 516 -453 835 -608 344 -166 582
-249 895 -312 450 -90 964 -92 1377 -5 105 22 254 61 298 78 11 5 25 -11 49
-51 29 -48 36 -54 41 -37 6 15 10 8 21 -31 11 -38 19 -50 34 -50 35 0 41 81
14 184 -6 22 164 95 221 95 65 0 501 -118 586 -158 64 -30 75 -40 100 -87 49
-89 112 -124 319 -173 25 -7 15 8 -76 101 -58 59 -111 118 -118 131 -11 20 -8
25 34 54 24 17 43 33 41 36 -7 7 -61 -26 -85 -52 l-24 -26 19 -23 c116 -131
146 -169 126 -158 -34 18 -155 135 -175 169 -17 30 -17 31 10 50 37 26 119 56
131 48 13 -8 42 3 42 16 0 6 -62 9 -157 7 l-158 -2 -145 46 c-80 24 -181 53
-225 62 -44 10 -87 19 -95 22 -8 2 42 34 110 72 242 131 436 263 568 386 l63
58 77 -17 c196 -46 438 -137 677 -255 88 -43 161 -78 163 -76 5 5 -152 128
-220 172 -106 69 -303 159 -456 210 -75 24 -139 46 -141 49 -2 2 65 75 150
161 218 223 343 372 387 462 20 41 57 97 82 124 l47 51 94 -65 c52 -36 132
-88 179 -116 73 -44 95 -52 155 -58 39 -4 81 -9 95 -11 25 -5 25 -5 -5 21 -16
14 -43 33 -58 41 -16 9 -77 54 -135 100 -59 47 -146 111 -193 143 l-86 58 25
64 c14 35 38 87 52 114 l26 50 92 9 c61 6 91 13 89 20 -2 6 -22 10 -46 8 -43
-2 -58 15 -21 25 11 3 20 9 20 13 0 8 -45 30 -63 30 -38 1 -36 16 24 195 60
182 117 381 140 490 7 33 13 61 14 63 2 2 83 -4 181 -13 99 -8 271 -21 382
-29 l204 -14 119 54 c185 83 355 167 469 233 58 33 138 73 178 87 62 23 73 30
70 48 -2 12 -9 20 -18 18 -8 -2 -37 1 -65 8 l-50 11 -210 -106 c-115 -59 -224
-115 -240 -125 -54 -33 -207 -78 -309 -91 -135 -16 -345 -6 -536 26 -85 15
-159 30 -164 35 -5 5 1 70 14 153 l22 144 59 28 c32 16 57 30 55 33 -6 5 -151
-63 -187 -88 -20 -15 -27 -26 -20 -33 6 -8 5 -51 -2 -120 -9 -85 -14 -107 -27
-107 -8 0 -78 7 -155 15 -77 8 -151 15 -165 15 l-25 1 23 19 c13 11 56 29 95
41 103 29 149 47 177 69 24 19 24 20 4 20 -12 0 -51 -11 -88 -25 -75 -28 -86
-26 -23 6 23 12 83 53 132 92 114 90 162 117 239 133 70 15 164 18 131 4 -11
-5 44 -6 130 -3 83 3 159 10 170 14 11 5 -29 6 -90 2 -60 -3 -108 -3 -105 0 5
6 187 37 214 37 8 0 16 -8 19 -17 4 -17 4 -17 12 0 13 30 -1 47 -34 41 -17 -4
-38 -3 -48 1 -10 4 -79 6 -154 5 -74 -1 -148 2 -162 6 -24 5 -26 9 -15 23 9
11 6 11 -9 -3 -12 -10 -27 -16 -32 -15 -12 4 154 259 168 259 9 0 71 150 71
172 0 7 -21 -25 -46 -72 -84 -154 -245 -382 -260 -367 -3 3 20 43 51 90 62 96
131 230 140 274 3 15 -14 -12 -39 -61 -63 -121 -206 -313 -206 -275 0 36 -31
294 -45 384 -95 587 -315 1117 -657 1577 -114 153 -207 259 -344 393 l-112
110 87 -3 c101 -4 264 10 378 33 133 28 358 93 424 123 l64 29 -38 18 c-36 18
-41 18 -210 -3 -292 -38 -454 -52 -581 -52 -254 0 -314 22 -664 245 -144 92
-145 80 13 155 106 49 195 83 335 126 82 25 96 26 411 31 350 6 417 0 545 -48
85 -32 175 -97 211 -154 66 -102 156 -154 310 -180 36 -6 46 -13 68 -51 34
-59 101 -107 271 -193 139 -72 141 -73 158 -119 9 -26 33 -63 53 -82 61 -59
78 -109 77 -228 -1 -100 -1 -102 18 -85 14 13 21 14 30 5 20 -20 28 -13 28 26
0 23 11 56 30 87 30 51 37 89 20 115 -6 9 -5 17 2 21 7 4 3 11 -10 18 -28 15
-81 93 -108 159 -22 54 -23 54 -113 94 -85 38 -93 44 -121 93 -16 29 -30 62
-30 73 0 28 40 48 116 61 86 13 164 -2 269 -54 73 -36 101 -45 143 -45 51 0
212 45 212 60 0 14 -97 49 -137 49 -54 0 -101 13 -215 60 -141 59 -156 62
-403 71 -139 5 -250 15 -280 23 -56 15 -111 42 -137 65 -17 14 -17 16 0 28 15
12 15 12 -6 7 -33 -8 -38 -24 -14 -44 32 -25 27 -31 -12 -12 -37 17 -63 58
-44 69 5 4 98 26 206 50 144 33 215 44 271 43 87 -1 103 3 -168 -50 -140 -28
-253 -59 -161 -44 149 24 515 77 653 96 161 21 170 23 213 57 50 38 97 51 288
82 239 39 397 15 506 -77 76 -63 222 -293 260 -409 25 -75 58 -107 165 -160
111 -54 222 -78 330 -70 190 13 294 46 738 230 l322 133 145 7 c180 9 304 25
590 75 124 22 262 45 308 52 45 6 82 14 82 18 0 3 -21 14 -46 23 -43 15 -67
15 -407 -7 -211 -14 -370 -20 -383 -15 -12 5 -56 13 -99 19 -145 21 -238 -6
-535 -152 -140 -69 -219 -102 -281 -117 -47 -11 -152 -41 -235 -66 -118 -36
-169 -47 -245 -51 -102 -6 -194 12 -219 42 -7 8 -16 13 -20 10 -16 -10 -60 18
-84 54 -40 58 -88 169 -93 215 -10 89 -5 94 319 298 286 180 297 185 356 190
37 2 59 0 55 -5 -6 -10 10 -7 92 15 l40 11 -55 25 c-123 57 -223 30 -460 -127
-146 -97 -229 -141 -266 -141 -14 0 -37 -9 -51 -20 -68 -53 -140 -44 -278 35
-106 62 -140 75 -205 86 -30 4 -88 16 -128 25 -80 17 -45 19 -447 -27 -164
-19 -235 5 -235 82 0 21 4 49 10 63 15 40 3 31 -21 -16 -20 -39 -20 -43 -5
-75 14 -29 14 -33 0 -33 -8 0 -27 12 -41 26 -24 24 -25 30 -19 85 8 79 32 123
103 189 l60 55 53 160 c29 88 64 183 77 210 47 94 135 164 228 179 l40 6 -30
-22 c-71 -53 -173 -162 -211 -225 -56 -94 -73 -143 -85 -237 -8 -64 -16 -91
-40 -126 l-31 -45 41 45 c23 25 43 54 45 65 2 11 9 52 15 92 20 136 70 232
170 331 84 82 114 95 351 147 338 74 409 93 505 140 90 43 212 140 204 161 -2
7 -29 0 -68 -18z m-11 -52 c-32 -31 -136 -86 -209 -110 -72 -24 -371 -90 -377
-83 -2 2 74 25 169 51 188 52 346 114 340 133 -3 7 3 10 14 7 10 -3 29 -1 43
5 34 13 36 13 20 -3z m-2330 -171 c-16 -53 -27 -65 -61 -65 l-28 0 44 92 c25
50 46 101 47 112 1 12 3 -6 6 -39 2 -33 -2 -78 -8 -100z m626 87 c-11 -18 -74
-42 -108 -41 -36 0 -37 0 57 37 51 20 61 20 51 4z m-4327 -46 c-18 -25 -34
-44 -36 -42 -7 7 36 84 49 89 23 8 21 -1 -13 -47z m1811 -133 c0 -11 -23 13
-50 52 -44 64 -37 68 10 5 22 -29 40 -55 40 -57z m1078 22 c22 -41 62 -138 62
-150 0 -14 -86 127 -105 171 -8 20 -15 39 -15 42 0 12 43 -35 58 -63z m-4308
-226 c0 -16 -4 -29 -10 -29 -5 0 -10 16 -10 36 0 21 4 33 10 29 6 -3 10 -19
10 -36z m118 -233 c51 -98 65 -158 52 -227 -12 -62 -15 -66 -35 -49 -10 8 -15
30 -15 60 0 56 -27 148 -82 283 -37 88 -39 101 -28 123 13 23 14 22 40 -43 15
-38 46 -103 68 -147z m4382 142 c25 -48 23 -71 -5 -48 -8 7 -15 22 -15 34 0
12 -7 32 -17 45 -12 18 -13 23 -2 19 8 -2 25 -25 39 -50z m-1176 -200 l-28
-160 -121 -158 c-67 -87 -162 -207 -210 -266 -71 -85 -89 -113 -87 -136 2 -21
-2 -28 -16 -28 -28 0 -55 35 -49 62 4 13 65 86 138 163 192 205 275 320 271
376 -1 15 4 32 12 36 22 13 94 259 97 331 1 20 4 15 11 -17 8 -35 4 -75 -18
-203z m-1209 -75 c-82 -24 -263 -93 -368 -139 -53 -24 -104 -44 -112 -44 -9 0
-98 -27 -198 -59 -178 -58 -317 -85 -317 -62 0 6 7 11 17 11 30 0 267 61 393
101 69 22 211 75 315 118 237 98 211 89 270 89 l50 0 -50 -15z m-1476 -47
c-68 -18 -124 -55 -229 -153 -52 -48 -138 -123 -190 -165 -225 -181 -398 -402
-465 -594 l-18 -50 28 -62 c15 -33 36 -68 46 -78 17 -16 22 -13 91 51 89 81
200 157 265 180 26 9 134 59 238 111 159 78 222 103 390 153 224 67 286 82
431 105 369 58 783 62 1089 11 93 -16 303 -64 319 -72 4 -3 -23 -38 -62 -77
-71 -72 -102 -119 -102 -155 0 -18 53 -101 131 -207 26 -34 31 -51 34 -115 2
-45 15 -114 35 -179 28 -92 31 -115 27 -185 -8 -136 -69 -246 -182 -332 -124
-93 -230 -129 -360 -120 -69 5 -92 11 -170 51 -49 25 -91 42 -93 36 -4 -12
-55 13 -95 46 -16 13 -33 24 -38 24 -5 0 -60 51 -122 113 -62 63 -127 122
-145 131 -19 10 -32 20 -29 23 3 2 15 -1 27 -7 11 -6 29 -10 38 -8 30 6 -242
135 -326 155 -99 23 -303 23 -460 -1 -97 -14 -306 -57 -352 -71 -9 -3 -22 7
-32 25 -24 43 -70 67 -175 90 -52 12 -108 32 -129 46 -20 14 -41 23 -48 21 -6
-2 6 -15 26 -28 49 -31 49 -45 1 -19 -55 29 -99 70 -84 79 15 10 -11 33 -59
51 -53 21 -168 136 -180 180 -14 52 4 148 52 268 l41 102 131 128 c170 164
316 296 391 353 139 104 248 159 315 158 l45 0 -46 -13z m5740 -440 c-31 -12
-72 -32 -91 -44 -20 -12 -50 -22 -68 -22 -28 0 -31 2 -19 16 29 36 127 70 204
73 25 0 21 -3 -26 -23z m-2559 -150 c-52 -18 -122 -45 -155 -60 -77 -34 -305
-158 -305 -166 0 -3 60 -41 134 -85 l133 -80 -96 -16 c-53 -9 -153 -35 -222
-58 -69 -23 -129 -41 -134 -41 -4 0 -5 19 -2 43 5 35 5 39 -6 23 -37 -59 -73
-69 -61 -18 27 112 137 238 258 297 220 106 375 169 446 181 112 18 114 16 10
-20z m5585 -116 c-11 -4 -126 -18 -255 -30 -129 -12 -269 -31 -310 -41 -41
-10 -138 -50 -216 -89 -211 -105 -464 -196 -649 -234 -80 -16 -202 -31 -195
-23 3 3 122 35 265 72 143 36 298 80 345 96 116 41 271 116 353 172 l69 47
176 15 c161 14 240 18 387 22 34 1 44 -1 30 -7z m-3591 -234 c-28 -13 -55 -29
-58 -35 -4 -5 8 -39 26 -73 18 -35 35 -67 37 -71 2 -5 -9 -1 -24 9 -27 18 -85
123 -85 155 0 17 61 35 125 38 27 1 24 -2 -21 -23z m601 -56 c-16 -4 -68 -7
-115 -7 l-85 1 80 6 c44 3 96 7 115 7 l35 1 -30 -8z m-1438 -96 c-3 -3 -12 -4
-19 -1 -8 3 -5 6 6 6 11 1 17 -2 13 -5z m-57 -14 c-34 -11 -60 -11 -35 0 11 5
29 8 40 8 16 0 15 -2 -5 -8z m-1320 -70 c-47 -10 -105 -26 -130 -34 -52 -19
-150 -77 -150 -88 0 -12 8 -10 53 16 87 50 163 68 313 73 87 4 167 1 212 -7
66 -11 76 -16 149 -77 113 -95 305 -291 404 -413 172 -211 291 -398 405 -635
76 -160 91 -197 161 -400 110 -321 182 -712 183 -987 l0 -68 -62 -40 c-101
-64 -287 -156 -366 -180 -73 -22 -73 -22 -230 -182 -256 -261 -473 -440 -688
-567 -60 -35 -120 -72 -134 -83 -135 -101 -183 -119 -550 -214 -347 -89 -380
-92 -519 -45 -49 17 -135 53 -190 81 -113 56 -235 100 -278 100 -15 0 -37 -7
-47 -15 -45 -34 -45 -12 1 46 74 94 155 164 237 203 78 38 107 68 171 181 45
78 83 120 133 148 26 14 58 38 72 53 39 42 95 73 199 111 53 19 119 47 146 63
28 15 73 33 100 38 28 6 116 29 195 52 163 46 296 70 386 70 74 0 101 16 222
132 48 45 103 89 130 100 26 12 69 41 97 64 56 49 157 105 242 135 61 21 288
62 307 56 6 -2 -34 -12 -89 -22 -94 -16 -111 -23 -283 -117 -100 -56 -181
-102 -179 -104 2 -2 51 18 108 45 201 94 391 156 563 186 92 15 124 30 126 57
0 4 -19 17 -42 29 -41 21 -42 21 -172 5 -357 -45 -499 -83 -607 -163 -47 -34
-60 -40 -59 -26 5 40 1 45 -31 38 -24 -5 -36 -2 -53 14 l-23 22 -75 -79 c-80
-84 -147 -165 -184 -223 l-22 -36 -114 -6 c-215 -10 -430 -72 -683 -197 -123
-61 -350 -201 -457 -283 l-36 -28 19 63 c11 35 33 149 50 253 43 280 81 398
156 488 25 31 31 67 10 67 -21 0 -103 -150 -132 -240 -14 -47 -41 -175 -60
-285 -19 -110 -44 -233 -56 -273 -20 -65 -24 -72 -43 -66 -12 4 -22 7 -22 8
-1 0 11 66 26 146 15 80 36 196 45 257 10 64 23 117 31 124 16 13 19 44 4 34
-13 -8 36 98 84 180 23 38 69 97 103 132 62 63 62 76 0 49 -57 -23 -184 -180
-229 -284 -18 -40 -22 -44 -29 -27 -4 11 -8 57 -8 103 -1 58 -6 90 -17 107
-18 28 -42 33 -51 9 -5 -13 -9 -12 -28 6 -26 24 -41 77 -49 166 -3 34 -11 74
-17 90 l-12 29 -7 -26 c-4 -14 -13 -66 -20 -115 -7 -49 -17 -93 -21 -98 -5 -6
-9 37 -9 97 0 59 -4 107 -9 107 -4 0 -16 -60 -25 -132 -10 -73 -20 -149 -23
-168 -4 -31 1 -43 39 -90 104 -129 168 -243 168 -301 0 -16 -32 -159 -72 -317
l-71 -287 -61 -80 c-89 -118 -213 -265 -255 -303 -63 -58 -127 -85 -211 -90
-65 -3 -102 3 -284 48 -182 46 -219 52 -280 48 l-71 -5 40 41 c22 23 58 74 79
114 43 78 67 105 117 130 23 12 41 32 56 64 14 29 34 53 52 63 23 11 34 27 46
67 30 104 24 141 -76 413 -28 76 -34 105 -35 188 -2 96 -4 100 -45 173 -24 41
-50 81 -60 90 -16 14 -15 20 13 101 16 47 32 110 35 139 5 45 9 54 25 54 11 0
34 10 50 22 30 21 30 22 24 87 -4 36 -9 75 -12 86 -4 16 3 25 32 38 37 18 37
18 31 68 -8 63 -46 139 -126 252 -34 48 -76 118 -93 155 -26 57 -30 75 -25
123 3 31 12 70 21 87 26 51 20 142 -10 142 -10 0 -14 12 -14 40 0 22 -7 58
-16 80 l-17 41 -28 -27 c-16 -15 -31 -36 -35 -46 -3 -10 -14 -18 -25 -18 -33
0 -60 -18 -140 -96 -42 -41 -83 -74 -90 -75 -8 -1 -102 -2 -209 -3 -158 -1
-203 -5 -239 -19 -43 -17 -45 -17 -78 3 -18 11 -75 29 -126 41 -50 12 -98 25
-106 29 -22 12 249 157 414 221 97 38 236 69 304 68 l66 -1 -80 -14 c-101 -18
-246 -59 -299 -84 l-41 -20 37 5 c20 3 57 14 81 25 120 53 378 88 513 70 99
-13 135 -24 294 -90 261 -110 563 -196 734 -209 110 -9 234 0 329 24 98 25
248 86 244 98 -5 14 -26 12 -135 -15 -46 -11 -86 -17 -89 -14 -4 3 0 6 8 6 23
0 153 65 216 108 129 88 253 241 253 312 0 81 21 153 56 194 19 22 37 52 41
66 22 93 139 208 288 282 112 56 302 117 365 116 39 0 34 -2 -40 -18z m2461
-155 c10 -22 16 -41 14 -44 -10 -10 -105 130 -104 154 0 18 71 -69 90 -110z
m-6379 8 c10 -23 36 -61 57 -85 21 -23 46 -58 56 -77 l17 -35 -28 -20 c-42
-29 -116 -106 -151 -157 -17 -25 -64 -103 -103 -175 -39 -71 -89 -152 -111
-181 -44 -56 -123 -116 -179 -134 -19 -6 -62 -37 -95 -69 -33 -32 -116 -101
-185 -154 -183 -141 -234 -185 -282 -243 -23 -29 -44 -51 -45 -49 -2 1 24 72
58 157 72 184 228 504 297 609 99 152 466 550 621 673 l36 28 9 -23 c5 -13 18
-42 28 -65z m645 -91 c25 -24 26 -27 9 -30 -21 -4 -62 23 -84 56 -14 21 -14
22 16 11 17 -6 43 -22 59 -37z m717 -974 c-57 -213 -82 -255 -49 -82 12 66 65
204 78 204 2 0 -11 -55 -29 -122z m-1038 -30 c95 -56 133 -94 144 -142 10 -43
6 -45 -25 -8 -12 15 -49 42 -81 61 -99 58 -160 108 -177 144 -28 58 -20 67 22
28 21 -20 74 -57 117 -83z m912 -58 c-1 -99 -6 -180 -10 -180 -4 0 -8 30 -8
68 0 37 -7 96 -16 132 -8 36 -12 76 -9 90 6 25 32 70 40 70 2 0 4 -81 3 -180z
m-169 -63 c38 -123 46 -163 32 -171 -11 -7 -11 -8 -42 139 -11 55 -23 109 -26
120 -3 11 -3 17 1 14 3 -3 19 -49 35 -102z m-224 41 c40 -39 61 -72 84 -127
17 -41 29 -76 27 -78 -1 -2 -17 19 -34 46 -18 27 -71 85 -118 130 l-85 81 36
0 c31 0 45 -8 90 -52z m-191 -92 c43 -35 88 -108 100 -161 7 -30 7 -30 -39 15
-47 45 -85 101 -104 153 -14 35 -7 34 43 -7z m-514 2 c0 -7 -31 -59 -68 -114
-82 -121 -144 -239 -165 -311 -16 -52 -12 -64 11 -41 9 9 16 1 29 -31 l19 -43
24 25 25 25 1 -147 c1 -123 4 -155 22 -205 25 -69 56 -106 89 -106 13 0 23 -2
23 -4 0 -3 -40 -86 -89 -185 -82 -167 -88 -184 -81 -218 15 -66 -21 -176 -95
-292 -12 -20 -25 -59 -28 -86 -3 -28 -19 -84 -35 -125 -29 -74 -40 -120 -62
-252 -5 -36 -24 -99 -41 -140 -91 -215 -109 -264 -117 -325 -14 -103 4 -131
102 -153 53 -12 83 -25 105 -48 26 -25 96 -7 202 54 63 35 115 58 148 63 30 5
61 17 74 30 l23 21 35 -26 c32 -24 40 -25 126 -22 60 2 89 0 83 -7 -15 -19
-21 -74 -12 -108 9 -33 6 -39 -54 -121 -88 -119 -106 -129 -219 -122 -98 5
-190 33 -352 104 -140 62 -226 85 -318 86 -77 0 -85 -2 -202 -57 -67 -31 -126
-57 -130 -57 -5 0 -34 46 -65 103 -151 271 -271 620 -343 996 -19 97 -19 175
0 236 8 27 12 51 10 53 -7 7 -43 -83 -67 -163 -27 -92 -34 -324 -19 -652 l11
-242 -37 -76 c-25 -53 -33 -79 -25 -87 15 -15 68 62 87 125 21 69 19 170 -6
339 -22 147 -22 269 0 291 8 8 11 6 11 -10 0 -33 47 -206 91 -338 53 -155 124
-326 204 -485 l64 -128 -102 -35 c-187 -65 -272 -89 -390 -112 l-69 -13 5 35
c5 29 4 33 -8 23 -8 -7 -17 -20 -20 -30 -8 -24 -27 -30 -62 -21 l-28 8 25 8
c14 4 36 17 49 29 42 38 51 73 44 188 -7 128 0 169 36 211 l29 32 16 360 c8
198 18 410 20 470 7 177 53 288 183 440 65 77 126 129 402 344 296 230 385
312 432 394 148 257 295 487 384 600 44 55 65 70 65 45z m1288 -96 c33 -142
45 -180 62 -204 37 -51 24 -99 -54 -208 -27 -38 -29 -44 -18 -74 17 -47 15
-90 -7 -110 -17 -15 -21 -15 -71 8 -39 18 -58 22 -71 15 -61 -32 -66 -31 -98
25 -36 64 -112 133 -155 141 -20 4 -48 0 -75 -11 -36 -14 -52 -31 -92 -92 -54
-82 -56 -92 -34 -126 15 -23 14 -24 -39 -52 -54 -28 -56 -28 -85 -11 -40 23
-51 22 -99 -13 -61 -44 -84 -40 -121 20 l-31 50 -30 -15 c-40 -21 -77 -19 -90
4 -5 11 -10 53 -10 93 0 80 -14 112 -56 128 -33 13 -32 71 1 125 28 44 31 66
13 94 -9 15 -8 28 5 62 32 83 53 109 90 109 32 0 130 -30 210 -64 21 -9 80
-25 132 -36 148 -31 185 -55 257 -175 18 -30 36 -55 40 -55 6 0 12 25 38 155
7 33 19 70 27 82 8 13 54 43 102 69 48 25 116 67 151 94 64 47 65 48 82 28 10
-11 22 -36 26 -56z m-383 -504 c53 -26 61 -47 45 -109 -11 -42 -73 -175 -89
-192 -5 -5 -11 6 -14 22 -4 17 -27 66 -52 110 -52 91 -57 130 -20 166 30 31
70 32 130 3z m184 -229 c62 -87 95 -171 86 -216 -3 -18 -8 -33 -11 -33 -27 0
-114 103 -114 135 0 9 -5 13 -11 9 -8 -5 -10 -34 -5 -97 6 -94 0 -117 -34
-117 -12 0 -26 20 -46 66 -18 42 -36 70 -51 77 -13 6 -25 8 -27 6 -2 -2 0 -28
6 -56 9 -43 8 -57 -5 -76 -18 -28 -84 -41 -125 -26 -25 9 -25 11 -19 92 6 66
4 87 -9 105 -16 24 -44 30 -44 10 -1 -51 -23 -155 -37 -170 -20 -23 -109 -24
-137 -3 -19 15 -19 15 1 52 12 21 26 63 32 93 6 31 21 70 32 88 18 31 23 33
63 31 31 -2 51 3 73 19 29 20 31 20 45 4 9 -9 21 -35 28 -57 14 -46 37 -75 57
-75 22 0 104 83 148 149 22 33 43 61 47 61 4 0 30 -32 57 -71z m1338 -99 c-1
-44 -5 -80 -8 -80 -12 0 -19 29 -14 58 2 15 7 44 10 65 9 59 14 43 12 -43z
m2586 33 c-7 -2 -21 -2 -30 0 -10 3 -4 5 12 5 17 0 24 -2 18 -5z m-2459 -240
c4 -51 4 -93 2 -93 -12 0 -34 58 -41 104 -9 57 14 149 25 105 4 -13 10 -66 14
-116z m1746 122 c0 -32 -90 -129 -98 -106 -7 20 19 81 41 96 21 15 57 21 57
10z m-4118 -59 l26 -33 -50 -99 c-57 -111 -71 -130 -111 -151 -23 -11 -35 -12
-63 -3 -31 11 -34 15 -34 51 0 50 18 94 76 181 65 97 110 112 156 54z m1188
-20 c41 -97 44 -194 7 -218 -34 -21 -54 -8 -80 51 -14 33 -29 75 -32 94 -6 31
-3 38 37 76 23 22 44 41 46 41 1 0 11 -20 22 -44z m-970 -40 c0 -2 -27 -61
-60 -132 l-60 -129 -37 2 c-65 5 -70 47 -16 168 33 73 39 82 55 72 13 -9 28
-7 60 5 45 17 58 20 58 14z m808 -64 c28 -50 33 -122 13 -169 -12 -30 -17 -33
-56 -33 -69 0 -83 19 -91 125 l-7 90 34 17 c54 27 80 20 107 -30z m-681 -9
c44 -26 45 -27 40 -68 -2 -24 -15 -76 -27 -116 l-23 -74 -46 4 c-65 5 -74 15
-69 78 4 43 63 201 76 203 2 0 24 -12 49 -27z m463 -23 c21 -21 23 -34 21
-120 -2 -58 -27 -130 -45 -130 -20 1 -91 37 -105 53 -10 13 -12 35 -6 94 6 64
11 82 32 100 30 28 76 30 103 3z m-225 -20 c30 0 31 -5 5 -105 -19 -73 -59
-145 -80 -145 -5 0 -23 12 -40 28 l-30 27 25 104 c14 57 28 107 31 112 3 5 18
2 34 -6 16 -8 40 -15 55 -15z m6240 -170 c3 -5 4 -10 2 -10 -3 0 -34 -11 -71
-25 -36 -14 -66 -23 -66 -20 0 5 111 64 122 65 4 0 10 -4 13 -10z m-5945 -30
c0 -5 -7 -7 -15 -4 -8 4 -12 10 -9 15 6 11 24 2 24 -11z m-242 -8 c2 -7 -5
-12 -17 -12 -14 0 -19 5 -14 15 6 17 25 15 31 -3z m437 -3 c11 -17 0 -20 -21
-4 -17 13 -17 14 -2 15 9 0 20 -5 23 -11z m-655 -30 c0 -4 -9 -5 -20 -2 -11 3
-20 12 -20 19 0 12 4 12 20 2 11 -7 20 -16 20 -19z m580 21 c0 -5 -5 -10 -11
-10 -5 0 -7 5 -4 10 3 6 8 10 11 10 2 0 4 -4 4 -10z m-650 -14 c0 -3 -4 -8
-10 -11 -5 -3 -10 -1 -10 4 0 6 5 11 10 11 6 0 10 -2 10 -4z m526 -4 c11 -7
34 -45 34 -56 0 -3 -4 -6 -9 -6 -13 0 -71 50 -71 61 0 11 30 12 46 1z m-916
-86 c-25 -83 -89 -153 -211 -232 -38 -24 -86 -60 -109 -80 -44 -40 -48 -35
-23 28 26 67 48 93 146 172 51 40 117 100 147 132 46 51 56 57 58 40 2 -11 -1
-38 -8 -60z m1323 -211 c3 -151 -11 -210 -60 -256 -26 -24 -34 -28 -28 -14 51
127 50 119 49 350 l-1 220 19 -90 c11 -52 20 -140 21 -210z m-637 275 c8 0 14
-10 14 -25 0 -31 -7 -31 -37 -3 -26 25 -30 43 -7 34 9 -3 22 -6 30 -6z m419
-2 c38 -17 30 -53 -12 -55 -20 -2 -23 3 -23 33 0 38 0 38 35 22z m-68 -20 c-3
-8 -6 -5 -6 6 -1 11 2 17 5 13 3 -3 4 -12 1 -19z m3853 4 c0 -4 -10 -12 -22
-17 -13 -6 -27 -20 -33 -32 -10 -24 -39 -31 -50 -13 -10 16 22 58 47 63 39 7
58 7 58 -1z m-4501 -16 c-11 -9 -63 -17 -54 -8 6 6 19 12 30 14 20 4 32 1 24
-6z m82 4 c5 0 9 -9 9 -20 0 -14 -7 -20 -22 -20 l-23 0 23 -18 c22 -17 22 -19
7 -67 -8 -28 -15 -65 -15 -84 0 -19 -3 -31 -6 -28 -4 3 -6 32 -5 64 0 32 -3
74 -9 92 -7 24 -6 39 1 48 6 7 8 20 5 29 -5 12 -2 15 10 10 8 -3 20 -6 25 -6z
m119 0 c-20 -13 -43 -13 -35 0 3 6 16 10 28 10 18 0 19 -2 7 -10z m260 -29 c0
-10 -62 -61 -73 -61 -19 0 -4 38 21 52 30 19 52 23 52 9z m100 -38 c0 -13 -5
-23 -11 -23 -8 0 -7 -5 1 -15 10 -12 10 -24 1 -55 -13 -44 -29 -59 -42 -39
-14 23 -11 49 6 43 8 -4 15 -1 15 5 0 7 -7 14 -15 17 -11 4 -15 21 -15 59 l0
53 30 -11 c21 -8 30 -18 30 -34z m-350 24 c0 -8 -11 -24 -25 -37 l-25 -23 0
24 c0 27 17 49 37 49 7 0 13 -6 13 -13z m-210 -7 c0 -5 -9 -19 -20 -30 -21
-21 -40 -26 -40 -10 0 11 40 50 52 50 4 0 8 -4 8 -10z m291 0 c25 -14 25 -47
-1 -55 -17 -5 -18 -10 -9 -27 6 -11 8 -22 6 -25 -12 -12 -36 57 -31 86 7 35 8
35 35 21z m426 2 c7 -4 10 -17 7 -29 -8 -29 -44 -19 -44 13 0 24 15 30 37 16z
m-1080 -144 c-55 -113 -132 -207 -223 -275 -55 -41 -177 -113 -191 -113 -2 0
4 17 12 37 28 67 95 141 198 219 119 90 202 167 224 207 8 16 17 26 20 23 3
-3 -15 -47 -40 -98z m815 24 c-1 -40 -1 -75 -2 -79 0 -5 -9 3 -20 16 -11 12
-17 27 -15 32 3 4 -3 26 -15 48 -25 50 -25 49 8 54 43 6 44 5 44 -71z m195 1
c-2 -16 -4 -3 -4 27 0 30 2 43 4 28 2 -16 2 -40 0 -55z m-417 60 c0 -14 -40
-73 -49 -73 -9 0 -25 49 -19 56 5 4 51 23 61 23 4 1 7 -2 7 -6z m480 -27 c0
-7 -7 -19 -15 -26 -13 -11 -15 -8 -15 14 0 16 5 26 15 26 8 0 15 -6 15 -14z
m-700 -5 c0 -8 -43 -41 -53 -41 -8 0 -15 38 -9 44 9 10 62 7 62 -3z m290 -71
c0 -23 -4 -30 -20 -30 -36 0 -25 55 13 59 4 1 7 -12 7 -29z m-290 -11 l0 -31
-19 23 c-19 24 -17 29 17 38 1 1 2 -13 2 -30z m212 -10 c-5 -32 -15 -29 -27 9
-5 17 -2 22 13 22 15 0 18 -6 14 -31z m4592 -41 c-27 -152 -102 -413 -178
-613 l-34 -90 -49 -8 c-90 -14 -496 -13 -520 1 -34 19 -29 36 7 28 43 -8 30 8
-19 24 -22 7 -39 18 -38 23 5 24 -166 97 -178 76 -9 -14 -66 22 -76 49 -15 39
-11 48 49 94 31 25 125 110 207 188 165 157 184 173 265 222 l56 33 257 3 257
3 -6 -33z m-4996 -100 c-21 -233 -101 -445 -213 -564 l-46 -49 25 48 c14 26
37 66 50 90 61 109 176 455 176 531 0 18 7 36 15 36 0 0 -3 -42 -7 -92z m570
44 c9 -6 6 -12 -13 -20 -27 -12 -28 -12 -19 12 7 18 13 19 32 8z m292 -12 c0
-11 -2 -20 -5 -20 -2 0 -9 9 -15 20 -9 16 -8 20 5 20 8 0 15 -9 15 -20z m-739
-13 c-13 -13 -26 -3 -16 12 3 6 11 8 17 5 6 -4 6 -10 -1 -17z m464 -27 c-10
-11 -23 -20 -29 -20 -6 0 0 9 14 20 32 25 38 25 15 0z m103 5 c2 -2 1 -12 -2
-23 -5 -14 -13 -18 -31 -15 -25 5 -40 28 -29 45 5 8 52 3 62 -7z m-333 -15 c0
-17 -51 -48 -61 -37 -10 9 37 58 50 54 6 -2 11 -10 11 -17z m85 14 c0 -1 -7
-20 -15 -44 -10 -29 -12 -47 -5 -60 6 -10 10 -27 10 -38 0 -24 -45 -68 -55
-52 -10 16 2 40 19 40 13 0 13 3 0 28 -16 32 -18 58 -4 67 6 3 10 19 10 35 0
23 4 28 20 27 11 -1 20 -2 20 -3z m396 -60 c-15 -41 -20 -28 -10 25 4 19 10
29 16 23 5 -5 2 -25 -6 -48z m-640 20 c4 -16 2 -29 -6 -34 -9 -5 -9 -9 -1 -14
13 -9 15 -56 2 -56 -5 0 -13 -17 -19 -37 l-9 -38 -8 28 c-5 21 -3 33 8 44 12
12 13 21 5 39 -8 17 -8 27 0 37 6 7 9 23 5 35 -3 13 -1 22 6 22 6 0 14 -12 17
-26z m-91 -3 c-3 -6 -11 -11 -17 -11 -6 0 -6 6 2 15 14 17 26 13 15 -4z m555
-42 c0 -10 -6 -19 -13 -19 -20 0 -25 9 -20 30 6 24 33 15 33 -11z m-70 13 c0
-4 -7 -17 -15 -29 -12 -17 -13 -28 -4 -49 8 -24 7 -31 -7 -41 -22 -16 -34 -16
-36 0 -2 22 -5 32 -13 51 -6 15 -1 26 23 48 32 27 52 36 52 20z m-466 -17 c8
-21 -3 -44 -25 -56 -17 -8 -19 -6 -19 19 0 42 31 69 44 37z m226 9 c0 -12 -34
-64 -42 -64 -4 0 -8 -4 -8 -10 0 -5 9 -10 19 -10 17 0 18 -3 8 -30 -19 -50
-33 -35 -39 43 -2 31 2 42 22 57 25 20 40 25 40 14z m430 -41 c-1 -27 -1 -27
-15 -9 -14 19 -12 36 6 36 5 0 9 -12 9 -27z m-152 -39 c-3 -14 -5 -12 -10 9
-3 19 -2 25 4 19 6 -6 8 -18 6 -28z m-518 -35 c0 -18 -2 -20 -15 -9 -13 11
-13 15 -3 21 18 12 18 12 18 -12z m-371 -105 c-22 -64 -58 -153 -81 -197 -61
-123 -157 -266 -188 -282 -41 -21 -117 -36 -145 -29 -23 6 -21 10 52 78 100
93 192 213 304 397 50 82 93 149 95 149 2 0 -15 -52 -37 -116z m1035 37 c10
-15 -22 -20 -34 -5 -10 11 -9 14 8 14 12 0 23 -4 26 -9z m-299 -51 c-10 -11
-23 -20 -28 -20 -6 0 -2 9 8 20 10 11 23 20 28 20 6 0 2 -9 -8 -20z m125 16
c0 -3 -4 -16 -9 -30 -13 -32 -51 -25 -51 10 0 20 5 24 30 24 17 0 30 -2 30 -4z
m-340 -12 c0 -8 -32 -33 -43 -34 -4 0 -3 9 3 20 10 18 40 29 40 14z m474 -16
c-15 -51 -37 -92 -41 -80 -3 7 1 19 7 27 7 8 10 25 6 38 -6 26 0 37 21 37 10
0 12 -7 7 -22z m-686 -8 c-7 -11 -17 -20 -22 -20 -5 0 -1 9 9 20 10 11 20 20
22 20 2 0 -2 -9 -9 -20z m62 -20 c0 -10 -7 -21 -15 -24 -13 -4 -14 -10 -5 -26
6 -11 8 -25 4 -32 -4 -7 -12 -2 -20 13 -11 21 -10 28 7 55 10 17 15 35 11 39
-4 5 -1 5 6 1 6 -4 12 -15 12 -26z m220 16 c0 -8 -5 -18 -11 -21 -5 -4 -8 -19
-5 -33 7 -30 -7 -61 -18 -43 -4 6 -12 8 -18 5 -14 -9 0 54 18 84 16 25 34 29
34 8z m230 -45 c-1 -29 -50 -36 -50 -7 0 22 22 37 37 25 7 -7 13 -14 13 -18z
m-80 12 c0 -10 -80 -67 -85 -62 -6 6 18 34 45 52 26 18 40 22 40 10z m-230
-12 c0 -4 -12 -20 -26 -35 -44 -43 -61 -30 -23 18 20 25 49 35 49 17z m-241
-33 c-13 -18 -25 -26 -27 -19 -4 13 25 51 40 51 5 0 -1 -14 -13 -32z m451 -27
c-1 -3 -10 -17 -21 -30 -21 -26 -36 -22 -24 6 5 10 7 23 6 30 -1 7 7 9 19 6
11 -3 20 -8 20 -12z m60 -12 c0 -11 -4 -17 -10 -14 -5 3 -10 15 -10 26 0 11 5
17 10 14 6 -3 10 -15 10 -26z m-457 6 c-3 -9 -8 -14 -10 -11 -3 3 -2 9 2 15 9
16 15 13 8 -4z m219 -37 c-9 -9 -12 -7 -12 12 0 19 3 21 12 12 9 -9 9 -15 0
-24z m-70 -3 c-5 -28 -20 -33 -29 -9 -3 9 0 20 8 25 22 14 27 11 21 -16z
m-213 -6 c-9 -17 -13 -19 -19 -8 -11 16 -4 29 16 29 12 0 13 -4 3 -21z m3759
-64 c-3 -3 -92 -23 -199 -45 -107 -22 -229 -48 -272 -59 -112 -27 -83 -10 63
37 110 35 176 51 270 66 40 6 144 6 138 1z m-3644 -33 c7 -11 -34 -73 -44 -67
-4 3 -6 15 -3 28 10 38 34 59 47 39z m206 -17 c-7 -8 -9 -22 -6 -32 6 -15 4
-14 -14 2 l-21 19 23 13 c30 16 33 16 18 -2z m418 -75 c-2 -8 -15 -16 -30 -18
-30 -4 -42 12 -54 72 l-7 39 47 -39 c26 -21 45 -46 44 -54z m3430 -22 c174
-103 195 -119 294 -221 l107 -110 -87 -121 c-168 -235 -339 -451 -451 -569
-47 -49 -102 -86 -176 -115 -20 -8 71 80 103 100 25 16 30 23 22 33 -9 10 -18
11 -36 4 -34 -12 -39 -11 -24 6 23 27 -40 18 -126 -19 -179 -77 -466 -95 -728
-44 -50 10 -60 15 -71 41 l-12 29 -17 -23 c-16 -23 -16 -25 5 -42 12 -9 17
-17 12 -17 -19 0 -43 26 -58 63 -15 36 -15 37 5 37 33 0 77 27 142 87 65 60
110 83 159 83 19 0 73 20 129 50 101 51 246 104 315 115 25 3 7 -6 -48 -25
-90 -31 -177 -75 -177 -91 0 -9 26 1 165 59 39 16 108 41 154 57 72 24 81 29
65 39 -25 14 -209 12 -294 -3 -65 -12 -235 -75 -605 -224 -189 -76 -243 -89
-269 -68 -6 5 -31 15 -55 22 -31 9 -38 15 -26 19 13 4 3 16 -45 49 -49 34 -67
42 -90 38 -23 -5 -46 5 -117 49 -48 30 -114 81 -146 112 -59 58 -117 156 -117
198 0 39 -17 70 -87 160 -37 48 -68 90 -68 94 0 5 -4 12 -9 17 -6 5 -6 2 -1
-7 5 -9 -1 -7 -14 5 -56 49 -47 78 37 113 50 21 132 35 132 23 0 -5 -18 -16
-40 -26 -61 -28 -59 -38 2 -14 72 28 139 22 248 -26 132 -57 215 -75 350 -75
177 0 337 31 645 125 302 92 452 122 618 124 l99 1 186 -112z m-4270 72 c-7
-11 -16 -20 -21 -20 -4 0 -3 9 3 20 6 11 15 20 20 20 6 0 5 -9 -2 -20z m739
-60 c10 -50 10 -51 -18 -65 -50 -26 -58 -21 -47 33 10 44 32 82 48 82 4 0 12
-23 17 -50z m-107 -14 c0 -40 -14 -75 -32 -79 -18 -5 -20 -2 -15 30 6 36 23
63 38 63 5 0 9 -6 9 -14z m4230 -7 c-41 -10 -108 -35 -149 -55 -66 -33 -73
-38 -57 -50 15 -11 27 -7 83 32 36 25 67 43 69 41 9 -9 -29 -94 -52 -118 l-26
-27 61 -59 c34 -32 61 -65 61 -73 0 -9 -9 -5 -27 11 -16 14 -50 45 -78 69 -55
49 -145 149 -145 161 0 4 22 15 49 24 28 9 61 25 74 35 22 18 61 24 172 28 32
1 26 -3 -35 -19z m-3806 -19 c-6 -6 -33 -20 -60 -31 l-49 -20 65 4 c179 11
688 -112 881 -213 92 -47 97 -52 119 -102 32 -76 24 -110 -48 -205 -32 -43
-67 -84 -76 -92 -24 -20 -20 -44 19 -121 19 -38 35 -76 35 -85 0 -8 19 -26 41
-41 58 -36 118 -100 185 -197 31 -45 96 -120 143 -167 74 -73 91 -97 127 -176
66 -148 135 -255 221 -345 l44 -46 -113 -31 c-272 -76 -442 -101 -733 -109
-575 -15 -1052 92 -1613 362 -255 123 -382 202 -552 342 -292 240 -401 336
-393 344 5 5 44 18 87 29 93 24 211 26 457 9 176 -13 293 -4 347 26 l27 14
-30 0 c-16 0 -50 -4 -75 -10 -51 -13 -128 -12 -180 0 -27 7 -10 9 71 10 l107
1 34 38 c52 58 102 146 153 272 26 63 60 140 75 170 47 93 136 166 225 184 27
6 28 5 12 -8 -17 -13 -16 -14 6 -20 43 -10 207 25 207 45 0 5 -23 9 -52 9
l-52 0 54 56 c53 53 106 88 160 105 39 12 136 11 124 -1z m-664 -90 c-8 -6
-23 -10 -33 -10 -16 0 -18 5 -12 43 11 62 16 65 39 18 18 -36 18 -43 6 -51z
m-197 68 c2 -7 0 -24 -5 -37 -5 -14 -7 -30 -4 -38 3 -7 2 -13 -2 -13 -13 0
-31 22 -27 34 2 6 6 23 9 39 7 28 21 36 29 15z m85 -65 c-3 -54 -5 -58 -28
-58 -17 0 -25 5 -24 18 0 9 1 35 2 57 2 36 5 40 27 40 25 0 26 -2 23 -57z
m4758 -309 c85 -51 116 -86 39 -43 -86 47 -132 79 -114 79 8 0 42 -16 75 -36z
m-2848 -279 c-32 -18 -42 -44 -29 -76 14 -33 48 -75 56 -68 3 4 6 34 6 68 1
65 5 70 51 52 13 -5 45 -27 73 -50 27 -22 65 -46 85 -52 43 -14 229 -111 496
-259 109 -61 224 -118 254 -127 66 -20 291 -21 392 -2 107 20 319 14 317 -9
-1 -14 -227 -185 -354 -268 -50 -33 -161 -92 -249 -133 l-158 -74 -72 17 c-56
13 -212 71 -303 112 -30 14 -9 -13 27 -36 51 -32 35 -38 -22 -9 -55 28 -163
139 -206 211 -19 31 -42 91 -53 133 -23 95 -51 159 -90 208 -29 36 -29 37 -8
37 18 0 14 6 -24 35 -25 19 -57 35 -72 35 -50 0 -81 27 -124 105 -66 119 -65
165 3 165 l31 -1 -27 -14z m1742 -345 c-20 -13 -33 -13 -25 0 3 6 14 10 23 10
15 0 15 -2 2 -10z m-29 -83 c-8 -8 -14 -7 -23 2 -11 10 -9 15 7 27 18 13 20
13 23 -2 2 -9 -1 -21 -7 -27z m-346 -58 c-49 -10 -209 -9 -250 1 -17 4 37 8
130 8 110 0 147 -3 120 -9z m-727 -589 c-10 -16 -10 -26 1 -52 38 -93 50 -138
50 -188 0 -65 -13 -51 -23 25 -13 88 -28 126 -63 152 -51 39 -38 82 25 83 20
0 21 -2 10 -20z m68 -19 c-8 -12 -46 -21 -46 -11 0 5 8 11 18 13 29 8 33 7 28
-2z"/>
<path d="M4435 6605 c49 -48 112 -105 140 -127 30 -24 12 -3 -45 53 -52 52
-115 109 -140 128 -28 20 -11 0 45 -54z"/>
<path d="M5916 6800 c-58 -62 -96 -143 -137 -292 -41 -148 -43 -157 -31 -138
5 8 22 60 37 115 34 124 94 249 147 310 56 63 42 67 -16 5z"/>
<path d="M5640 6241 c-41 -43 -95 -95 -120 -116 l-45 -37 55 38 c30 21 74 51
97 67 23 16 53 51 68 78 14 27 25 49 23 48 -2 0 -37 -36 -78 -78z"/>
<path d="M3060 6030 c-36 -22 -81 -54 -100 -70 -19 -17 8 -3 60 31 92 60 119
79 110 79 -3 0 -34 -18 -70 -40z"/>
<path d="M5545 4778 c-48 -25 -50 -26 -42 -34 6 -7 87 41 87 51 0 7 0 7 -45
-17z"/>
<path d="M5304 4488 c-14 -28 -15 -31 -2 -20 14 11 31 52 22 52 -2 0 -11 -15
-20 -32z"/>
<path d="M6914 4438 l-19 -23 23 19 c12 11 22 21 22 23 0 8 -8 2 -26 -19z"/>
<path d="M6864 4398 l-19 -23 23 19 c12 11 22 21 22 23 0 8 -8 2 -26 -19z"/>
<path d="M6563 4249 c-189 -17 -399 -63 -569 -124 -120 -44 -284 -125 -346
-173 -52 -39 -64 -55 -20 -26 138 92 264 153 412 202 172 57 265 75 395 76
121 2 184 13 220 40 11 9 16 15 10 14 -5 0 -51 -4 -102 -9z"/>
<path d="M5447 3778 c-54 -51 -97 -101 -97 -110 0 -25 9 -22 34 9 11 16 54 65
94 110 41 46 72 83 69 83 -2 0 -47 -42 -100 -92z"/>
<path d="M5170 3510 c-19 -11 -62 -46 -96 -77 -67 -64 -59 -61 31 13 33 27 72
57 85 66 33 23 23 22 -20 -2z"/>
<path d="M2303 5123 c-23 -32 -53 -88 -53 -100 0 -11 36 42 61 90 23 44 20 47
-8 10z"/>
<path d="M2175 4909 c-20 -28 -32 -48 -26 -45 12 8 74 96 67 96 -2 0 -21 -23
-41 -51z"/>
<path d="M2035 4744 c-31 -27 -33 -31 -9 -15 28 18 62 51 53 51 -2 0 -22 -16
-44 -36z"/>
<path d="M1739 4542 c-227 -146 -315 -218 -378 -308 l-33 -49 51 56 c68 76
208 188 361 289 119 79 149 100 140 100 -3 0 -66 -40 -141 -88z"/>
<path d="M1119 2758 c-4 -78 -10 -114 -24 -135 l-18 -28 21 19 c27 24 34 60
30 166 l-3 85 -6 -107z"/>
<path d="M3811 5546 c-6 -7 -59 -42 -117 -77 -120 -73 -148 -106 -148 -178 0
-36 9 -59 37 -102 49 -77 63 -89 103 -89 52 0 94 22 142 73 39 44 42 50 42
106 0 32 -7 93 -16 134 -11 56 -13 85 -5 111 8 32 7 36 -9 36 -9 0 -23 -6 -29
-14z m-4 -138 c7 -14 16 -59 19 -99 7 -94 -11 -133 -79 -167 -41 -21 -49 -22
-73 -10 -15 7 -39 28 -53 47 l-26 35 40 -27 c22 -15 47 -27 56 -27 9 0 37 22
63 50 53 57 57 81 26 160 -11 28 -20 55 -20 61 0 20 35 3 47 -23z m-117 -53
c0 -36 -12 -43 -39 -26 -12 8 -13 14 -3 35 17 39 42 34 42 -9z"/>
<path d="M2885 5409 c14 -17 25 -34 25 -37 0 -4 -13 -44 -29 -89 l-28 -81 23
-74 c26 -81 71 -143 118 -163 25 -11 38 -10 81 5 122 42 144 74 153 216 4 78
3 82 -24 113 -23 25 -50 38 -124 60 -52 15 -123 40 -158 54 l-63 26 26 -30z
m80 -167 c-6 -83 -5 -105 10 -136 35 -72 86 -85 153 -36 23 17 42 28 42 26 0
-2 -7 -19 -15 -39 -16 -38 -35 -47 -108 -47 -74 0 -104 20 -113 77 -17 104 -3
253 22 253 13 0 15 -14 9 -98z m143 32 c12 -8 22 -24 22 -35 0 -15 -7 -19 -35
-19 -32 0 -35 3 -35 28 0 45 12 51 48 26z"/>
<path d="M7344 3762 c-296 -272 -404 -374 -404 -383 0 -6 30 16 68 49 88 80
388 371 382 371 -3 0 -23 -16 -46 -37z"/>
<path d="M5036 2718 c10 -14 21 -24 23 -22 3 3 -6 15 -18 27 l-24 22 19 -27z"/>
<path d="M5060 2669 c0 -20 51 -122 57 -115 7 6 -23 82 -43 110 -10 15 -14 16
-14 5z"/>
<path d="M5129 2513 c5 -10 29 -36 53 -58 105 -98 117 -104 38 -19 -83 89
-111 112 -91 77z"/>
<path d="M5325 2330 c10 -11 20 -20 23 -20 3 0 -3 9 -13 20 -10 11 -20 20 -23
20 -3 0 3 -9 13 -20z"/>
<path d="M6180 2190 c-19 -11 -30 -19 -25 -19 6 0 26 8 45 19 19 11 31 19 25
19 -5 0 -26 -8 -45 -19z"/>
<path d="M3699 2873 l-24 -28 28 24 c25 23 32 31 24 31 -2 0 -14 -12 -28 -27z"/>
<path d="M3331 2683 c-17 -33 -81 -196 -78 -200 4 -3 67 136 86 190 12 30 7
36 -8 10z"/>
<path d="M3220 2423 c0 -6 -30 -59 -66 -119 -83 -137 -83 -137 -39 -89 38 42
122 202 111 212 -3 4 -6 2 -6 -4z"/>
<path d="M5330 1930 c6 -11 13 -20 16 -20 2 0 0 9 -6 20 -6 11 -13 20 -16 20
-2 0 0 -9 6 -20z"/>
<path d="M4366 8935 c-86 -58 -122 -90 -66 -58 19 11 56 32 82 47 26 15 52 35
58 46 6 11 9 20 8 19 -2 0 -38 -24 -82 -54z"/>
<path d="M8011 8811 c-61 -24 -69 -32 -185 -176 -66 -82 -145 -174 -174 -203
l-53 -52 43 21 c35 17 68 54 170 188 121 161 130 169 197 205 39 20 71 39 71
42 0 2 -1 3 -2 3 -2 -1 -32 -13 -67 -28z"/>
<path d="M3932 8637 c-6 -7 -38 -28 -71 -47 -72 -40 -73 -50 -3 -20 49 21 101
65 90 75 -3 3 -10 0 -16 -8z"/>
<path d="M3705 8510 c-16 -11 -25 -20 -20 -20 10 0 64 39 55 40 -3 0 -18 -9
-35 -20z"/>
<path d="M10769 8000 c-46 -28 -93 -59 -104 -69 -11 -10 -69 -45 -130 -77 -60
-31 -142 -80 -182 -107 -77 -52 -163 -137 -163 -161 0 -18 68 -178 82 -191 5
-5 3 7 -6 27 -8 21 -25 72 -36 114 l-22 76 24 25 c44 47 153 121 263 178 101
53 375 221 375 231 0 11 -24 0 -101 -46z"/>
<path d="M8996 6713 c-7 -73 -10 -80 -52 -129 -24 -29 -40 -55 -36 -58 11 -7
55 40 75 80 23 45 43 162 30 175 -7 7 -12 -14 -17 -68z"/>
<path d="M1110 5501 c0 -6 4 -13 10 -16 6 -3 7 1 4 9 -7 18 -14 21 -14 7z"/>
<path d="M1602 1590 c-77 -97 -113 -211 -92 -289 13 -50 35 -68 25 -22 -18 83
-9 127 53 246 33 63 59 115 57 115 -2 0 -21 -23 -43 -50z"/>
<path d="M1598 1063 c4 -27 7 -98 7 -160 0 -101 1 -109 14 -86 25 48 26 143 2
222 -12 39 -24 71 -26 71 -3 0 -1 -21 3 -47z"/>
<path d="M1591 698 c0 -24 9 -65 20 -93 11 -27 17 -39 14 -25 -3 14 -8 53 -12
88 -7 72 -23 94 -22 30z"/>
<path d="M1656 460 c26 -99 101 -233 173 -310 40 -43 39 -42 -9 24 -28 38 -78
123 -111 190 -33 66 -57 110 -53 96z"/>
</g>
</svg>
